<svg width="16" height="17" viewBox="0 0 16 17" fill="none" xmlns="http://www.w3.org/2000/svg">
<ellipse cx="7.90361" cy="8" rx="7.90361" ry="8" fill="white"/>
<path d="M4.25781 6.39062C4.25 6.32812 4.23438 6.27344 4.21094 6.22656C4.19531 6.17188 4.17578 6.11328 4.15234 6.05078C4.11328 5.95703 4.07812 5.85547 4.04688 5.74609C4.01562 5.63672 4 5.50781 4 5.35938C4.01562 5.28125 4.03516 5.22656 4.05859 5.19531C4.08203 5.15625 4.10547 5.125 4.12891 5.10156L4.17578 4.89062H4.35156C4.41406 4.89844 4.47656 4.90234 4.53906 4.90234C4.60938 4.90234 4.67578 4.90234 4.73828 4.90234C5.03516 4.90234 5.33984 4.89062 5.65234 4.86719C5.96484 4.84375 6.28516 4.81641 6.61328 4.78516C6.97266 4.73828 7.35938 4.70312 7.77344 4.67969C7.8125 4.59375 7.83594 4.53906 7.84375 4.51562C7.85938 4.49219 7.875 4.46484 7.89062 4.43359L8.01953 4.36328C8.19922 4.35547 8.32422 4.37891 8.39453 4.43359C8.46484 4.48047 8.51953 4.52734 8.55859 4.57422C8.76172 4.55859 8.96875 4.53906 9.17969 4.51562C9.39062 4.48438 9.60938 4.45312 9.83594 4.42188C10.1484 4.38281 10.4648 4.34375 10.7852 4.30469C11.1055 4.26562 11.418 4.24609 11.7227 4.24609C11.8555 4.24609 11.9805 4.25 12.0977 4.25781C12.2148 4.26562 12.3281 4.27734 12.4375 4.29297L12.5781 4.39844C12.6094 4.45312 12.6484 4.50391 12.6953 4.55078C12.7422 4.59766 12.7969 4.64453 12.8594 4.69141C12.9766 4.78516 13.0898 4.90234 13.1992 5.04297C13.3164 5.18359 13.3594 5.39062 13.3281 5.66406L13.2695 5.78125C13.2383 5.8125 13.1992 5.84375 13.1523 5.875L13.0352 6.02734H12.9062C12.8281 6.02734 12.7695 6.03516 12.7305 6.05078C12.6914 6.05859 12.6445 6.07422 12.5898 6.09766C12.5586 6.11328 12.5234 6.12891 12.4844 6.14453C12.4453 6.15234 12.4023 6.16406 12.3555 6.17969C12.2695 6.17188 12.2031 6.16797 12.1562 6.16797C12.1094 6.16797 12.0547 6.16797 11.9922 6.16797C11.7578 6.16797 11.5039 6.18359 11.2305 6.21484C10.957 6.24609 10.6914 6.28125 10.4336 6.32031C10.2461 6.34375 10.0664 6.36719 9.89453 6.39062C9.72266 6.40625 9.56641 6.42188 9.42578 6.4375C9.34766 6.64062 9.27734 6.82031 9.21484 6.97656C9.15234 7.13281 9.08594 7.28906 9.01562 7.44531C8.94531 7.60156 8.87891 7.76172 8.81641 7.92578C8.75391 8.08203 8.69531 8.25781 8.64062 8.45312C8.54688 8.59375 8.46875 8.73047 8.40625 8.86328C8.34375 8.98828 8.29297 9.13281 8.25391 9.29688C8.13672 9.42969 8.05078 9.57422 7.99609 9.73047C7.94922 9.88672 7.90625 10.0195 7.86719 10.1289L7.82031 10.3047C7.76562 10.3594 7.73047 10.4023 7.71484 10.4336C7.70703 10.4648 7.6875 10.5 7.65625 10.5391C7.63281 10.6406 7.60156 10.7383 7.5625 10.832C7.54688 10.8711 7.53125 10.9141 7.51562 10.9609C7.5 11 7.49609 11.0312 7.50391 11.0547C7.48828 11.1406 7.46484 11.207 7.43359 11.2539C7.43359 11.3008 7.42969 11.3477 7.42188 11.3945C7.41406 11.4414 7.40625 11.4883 7.39844 11.5352C7.38281 11.5898 7.37109 11.6406 7.36328 11.6875C7.35547 11.7266 7.35938 11.7656 7.375 11.8047C7.39844 11.8359 7.42188 11.8672 7.44531 11.8984C7.46875 11.9297 7.48828 11.9688 7.50391 12.0156C7.51953 12.0312 7.53906 12.043 7.5625 12.0508C7.58594 12.0586 7.60547 12.0703 7.62109 12.0859C7.68359 12.1406 7.74219 12.1719 7.79688 12.1797L7.91406 12.3203C7.96094 12.6016 7.91797 12.8203 7.78516 12.9766C7.64453 13.1562 7.41016 13.2461 7.08203 13.2461L6.91797 13.2344C6.86328 13.1797 6.83203 13.1445 6.82422 13.1289C6.75391 13.0977 6.69531 13.0703 6.64844 13.0469C6.60156 13.0312 6.55859 12.9961 6.51953 12.9414C6.50391 12.9258 6.48438 12.918 6.46094 12.918C6.4375 12.9102 6.41797 12.8984 6.40234 12.8828C6.32422 12.8594 6.26172 12.832 6.21484 12.8008L6.08594 12.7305C6.09375 12.6523 6.09766 12.5977 6.09766 12.5664C6.03516 12.4805 5.98438 12.3867 5.94531 12.2852C5.91406 12.1836 5.88672 12.0781 5.86328 11.9688C5.83984 11.8828 5.81641 11.8047 5.79297 11.7344C5.77734 11.6641 5.75 11.6016 5.71094 11.5469C5.69531 11 5.74609 10.543 5.86328 10.1758C5.98047 9.80078 6.10938 9.4375 6.25 9.08594C6.32812 8.89844 6.40234 8.70703 6.47266 8.51172C6.54297 8.31641 6.60547 8.11719 6.66016 7.91406L6.78906 7.78516C6.84375 7.73828 6.87891 7.71094 6.89453 7.70312C6.89453 7.60156 6.91406 7.50391 6.95312 7.41016C6.99219 7.30859 7.03516 7.20703 7.08203 7.10547C7.11328 7.04297 7.14062 6.98047 7.16406 6.91797C7.19531 6.85547 7.21484 6.80078 7.22266 6.75391C7.16797 6.75391 7.11719 6.75781 7.07031 6.76562C7.03125 6.76562 6.98828 6.76953 6.94141 6.77734C6.83984 6.80078 6.74219 6.8125 6.64844 6.8125C6.57812 6.8125 6.52734 6.80859 6.49609 6.80078C6.43359 6.83203 6.375 6.85156 6.32031 6.85938C6.26562 6.85938 6.21094 6.85938 6.15625 6.85938H6.01562H5.875C5.78125 6.85938 5.70703 6.87109 5.65234 6.89453C5.54297 6.89453 5.47266 6.89453 5.44141 6.89453C5.41016 6.89453 5.375 6.89453 5.33594 6.89453H5.19531H5.05469C4.99219 6.89453 4.92188 6.89062 4.84375 6.88281C4.76562 6.86719 4.68359 6.83594 4.59766 6.78906L4.51562 6.69531C4.46875 6.60938 4.42578 6.5625 4.38672 6.55469L4.25781 6.51953V6.39062Z" fill="black"/>
</svg>
